<?xml version="1.0" encoding="UTF-8" standalone="no"?>
<!-- Created with Inkscape (http://www.inkscape.org/) -->
<svg xmlns:dc="http://purl.org/dc/elements/1.1/" xmlns:cc="http://creativecommons.org/ns#" xmlns:rdf="http://www.w3.org/1999/02/22-rdf-syntax-ns#" xmlns:svg="http://www.w3.org/2000/svg" xmlns="http://www.w3.org/2000/svg" xmlns:sodipodi="http://sodipodi.sourceforge.net/DTD/sodipodi-0.dtd" xmlns:inkscape="http://www.inkscape.org/namespaces/inkscape" width="17.727083mm" height="13.229167mm" viewBox="0 0 17.727083 13.229168" version="1.1" id="svg904" inkscape:version="0.92.5 (2060ec1f9f, 2020-04-08)" sodipodi:docname="glassdoor.svg">
  <defs id="defs898"/>
  <sodipodi:namedview id="base" pagecolor="#eaeaea" bordercolor="#666666" borderopacity="1.0" inkscape:pageopacity="0" inkscape:pageshadow="2" inkscape:zoom="3.959798" inkscape:cx="54.05093" inkscape:cy="11.398075" inkscape:document-units="mm" inkscape:current-layer="layer1" showgrid="false" inkscape:window-width="1920" inkscape:window-height="1031" inkscape:window-x="0" inkscape:window-y="0" inkscape:window-maximized="1"/>
  <metadata id="metadata901">
    <rdf:RDF>
      <cc:Work rdf:about="">
        <dc:format>image/svg+xml</dc:format>
        <dc:type rdf:resource="http://purl.org/dc/dcmitype/StillImage"/>
        <dc:title/>
      </cc:Work>
    </rdf:RDF>
  </metadata>
  <g inkscape:label="Layer 1" inkscape:groupmode="layer" id="layer1" transform="translate(-435.11288,-269.82721)">
    <g id="FooterLogo" transform="matrix(0.02605601,0,0,0.02605601,435.49258,267.93711)" style="fill:#000">
	<path id="path1273" d="m 643.3,479 c 0,-0.7 -0.5,-1.5 -1.1,-1.8 -1.4,-0.8 -3.5,-1.3 -7.8,-1.3 -9.7,0 -18.2,4.8 -21.9,12.9 V 479 c 0,-0.8 -0.7,-1.5 -1.6,-1.5 h -14.4 c -0.8,0 -1.5,0.6 -1.5,1.5 v 66.4 c 0,0.8 0.7,1.5 1.6,1.5 h 15.2 c 0.8,0 1.5,-0.7 1.5,-1.5 v -29.9 c 0,-13.3 9.3,-19.9 21.2,-19.9 2.8,0 5.6,0.5 7,1 1,0.3 1.9,-0.4 1.9,-1.5 v -16.2 z m -96.8,-3.2 c 21.3,0 37.2,14.7 37.2,36.4 0,21.6 -15.9,36.4 -37.1,36.4 -21.2,0 -37,-14.7 -37,-36.4 -0.1,-21.7 15.7,-36.4 36.9,-36.4 z m 0,54.8 c 10.4,0 18.4,-7.3 18.4,-18.4 0,-11.1 -8,-18.5 -18.4,-18.5 -10.3,0 -18.3,7.4 -18.3,18.5 0.1,11.1 8.1,18.4 18.3,18.4 z m -84.2,-54.8 c 21.3,0 37.1,14.7 37.1,36.4 0,21.6 -15.9,36.4 -37,36.4 -21.3,0 -37.2,-14.7 -37.2,-36.4 0,-21.7 15.8,-36.4 37.1,-36.4 z m 0,54.8 c 10.4,0 18.4,-7.3 18.4,-18.4 0,-11.1 -8,-18.5 -18.3,-18.5 -10.3,0 -18.3,7.4 -18.3,18.5 -0.1,11.2 7.9,18.5 18.2,18.4 z m -49.9,-80.8 c 0.8,0 1.5,0.6 1.5,1.5 v 94.1 c 0,0.8 -0.6,1.5 -1.5,1.5 h -15.2 c -0.8,0 -1.5,-0.7 -1.5,-1.5 v -8.2 c -5.1,7.2 -12.9,11.5 -22.9,11.5 -17.1,0 -31.4,-13 -31.4,-36.5 0,-23.5 14.3,-36.5 31.1,-36.5 10.8,0 18.5,5.1 23.2,11.8 v -36.2 c 0,-0.8 0.7,-1.6 1.6,-1.6 z m -34.2,81.1 c 10.2,0 18.1,-7.2 18.1,-18.6 0,-11.5 -7.9,-18.6 -18.1,-18.6 -10.3,0 -18.1,7.4 -18.1,18.6 0,11.3 7.8,18.6 18.1,18.6 z M 331.4,526 c 0,15.8 -11.4,22.6 -29.8,22.6 -12.6,0 -23.6,-3.5 -29.8,-10.5 -0.5,-0.6 -0.5,-1.4 0,-2 l 8.7,-11.5 c 0.6,-0.8 1.7,-0.8 2.3,-0.1 4.6,4.8 11.8,7.7 20.6,7.7 5.1,0 9.3,-1.4 9.3,-5.3 0,-3.8 -3.8,-4.6 -15.4,-7.1 -10.2,-2.1 -22.9,-6.8 -22.9,-21.9 0,-14.1 11.1,-22.1 29.1,-22.1 11.9,0 20.4,3.6 26.4,9.3 0.6,0.6 0.6,1.5 0.1,2.1 l -8.3,10.9 c -0.5,0.7 -1.5,0.8 -2.2,0.3 -4,-3.7 -10.8,-5.9 -17.5,-5.9 -5.6,0 -8.8,1.8 -8.8,4.8 0,3.5 3.8,4.3 16,6.9 12.1,2.6 22.2,7.2 22.2,21.8 z m -70,0 c 0,15.8 -11.4,22.6 -29.8,22.6 -12.7,0 -23.6,-3.5 -29.9,-10.5 -0.4,-0.6 -0.4,-1.4 0,-2 l 8.8,-11.4 c 0.5,-0.8 1.7,-0.8 2.3,-0.1 4.6,4.8 11.8,7.7 20.6,7.7 5.1,0 9.3,-1.4 9.3,-5.3 0,-3.8 -3.8,-4.6 -15.4,-7.1 -10.2,-2.1 -22.9,-6.8 -22.9,-21.9 0,-14.1 11,-22.1 29.1,-22.1 11.9,0 20.4,3.6 26.4,9.3 0.6,0.5 0.6,1.5 0.1,2.1 l -8.3,10.8 c -0.5,0.7 -1.6,0.8 -2.2,0.3 -4,-3.7 -10.8,-5.9 -17.5,-5.9 -5.6,0 -8.8,1.8 -8.8,4.8 0,3.5 3.8,4.3 16,6.9 12,2.6 22.1,7.2 22.2,21.8 z M 158.7,476 c 20.1,0 30.2,8.9 30.2,28.2 v 41.4 c 0,0.8 -0.7,1.5 -1.6,1.5 h -15.2 c -0.8,0 -1.5,-0.6 -1.5,-1.5 v -7.9 c -3.5,5.6 -10.4,10.8 -21.2,10.8 -13.7,0 -23.3,-8.8 -23.3,-21.6 0,-12.6 9.4,-20.6 22.1,-21.8 l 18.9,-1.7 c 2.5,-0.3 3.5,-1.1 3.5,-2.8 v -1.1 c 0,-4 -3.8,-6.9 -12,-6.9 -6.6,0 -13.5,1.9 -16.5,7.5 -0.4,0.8 -1.4,0.9 -2.1,0.4 l -11,-8 c -0.6,-0.4 -0.8,-1.3 -0.4,-1.9 4.8,-9.7 15.7,-14.5 30.1,-14.5 z m 11.9,42.9 v -2.8 l -17,2.1 c -5.6,0.8 -8.5,3.7 -8.5,7.6 0,4.5 3.5,7.4 9.8,7.4 9.6,0 15.8,-6.7 15.7,-14.3 z m -56.9,-67.6 v 94.1 c 0,0.9 -0.7,1.6 -1.5,1.6 H 96.9 c -0.8,0 -1.6,-0.7 -1.6,-1.6 v -94.1 c 0,-0.8 0.7,-1.5 1.5,-1.5 h 15.3 c 0.9,0 1.6,0.7 1.6,1.5 z m -35,26.1 c 0.8,0 1.6,0.7 1.6,1.6 v 63.3 c 0,17.9 -8.5,34.1 -37.5,34.1 -13.3,0 -22.5,-3.8 -29.5,-9.9 -0.5,-0.4 -0.6,-1.3 0.3,-2.8 l 6.8,-11.6 c 0.4,-0.8 1.5,-1 2.2,-0.3 5.5,4.9 11.7,7.5 19.5,7.5 15.4,0 20.2,-7.9 20.2,-17.9 V 537 c -4.5,6.5 -12.2,10.6 -22.1,10.6 -18.4,0 -32.4,-12.6 -32.4,-35.7 0,-23.2 14.7,-36.1 31.9,-36.1 10.6,0 18.6,5.1 22.5,11.4 v -8.1 c 0,-0.8 0.7,-1.6 1.6,-1.6 z m -34.1,53.4 c 10.3,0 17.9,-7.2 17.9,-18.6 0,-11.5 -7.6,-18.6 -17.9,-18.6 -10.4,0 -18.1,7.4 -18.1,18.6 0,11.2 7.8,18.6 18.1,18.6 z" class="st0" inkscape:connector-curvature="0" style="fill:#0cab41"/>

	<path id="path1275" d="M 389.1,332.4 H 219.6 c 0,23.6 18.9,42.6 42.4,42.6 h 127.1 c 23.4,0 42.3,-19.1 42.3,-42.6 V 157.2 c 0,-0.8 -0.7,-1.6 -1.5,-1.6 h -39.3 c -0.8,0 -1.5,0.7 -1.5,1.6 z m 0,-256 c 23.4,0 42.3,19.1 42.3,42.7 H 261.9 v 175.2 c 0,0.8 -0.7,1.6 -1.6,1.6 H 221 c -0.8,0 -1.6,-0.7 -1.6,-1.6 V 119.1 c 0,-23.6 18.9,-42.7 42.4,-42.7 z" class="st0" inkscape:connector-curvature="0" style="fill:#000"/>

</g>
  </g>
  <style id="style818" type="text/css">
	.st0{fill:#17313B;}
	.st1{fill:#EF4335;}
</style>
  <style id="style1200" type="text/css">
	.st0{fill:#3A7AF3;}
</style>
  <style id="style1271" type="text/css">
	.st0{fill:#0CAA41;}
</style>
</svg>